<svg width="596" height="116" viewBox="0 0 596 116" fill="none" xmlns="http://www.w3.org/2000/svg">
<path d="M149.504 37.432C153.472 37.432 157.056 38.296 160.256 40.024C163.456 41.688 165.952 44.216 167.744 47.608C169.6 51 170.528 55.128 170.528 59.992V91H161.888V61.24C161.888 55.992 160.576 51.992 157.952 49.24C155.328 46.424 151.744 45.016 147.2 45.016C142.592 45.016 138.912 46.456 136.16 49.336C133.472 52.216 132.128 56.408 132.128 61.912V91H123.392V19.96H132.128V45.88C133.856 43.192 136.224 41.112 139.232 39.64C142.304 38.168 145.728 37.432 149.504 37.432ZM232.798 62.68C232.798 64.344 232.702 66.104 232.51 67.96H190.462C190.782 73.144 192.542 77.208 195.742 80.152C199.006 83.032 202.942 84.472 207.55 84.472C211.326 84.472 214.462 83.608 216.958 81.88C219.518 80.088 221.31 77.72 222.334 74.776H231.742C230.334 79.832 227.518 83.96 223.294 87.16C219.07 90.296 213.822 91.864 207.55 91.864C202.558 91.864 198.078 90.744 194.11 88.504C190.206 86.264 187.134 83.096 184.894 79C182.654 74.84 181.534 70.04 181.534 64.6C181.534 59.16 182.622 54.392 184.798 50.296C186.974 46.2 190.014 43.064 193.918 40.888C197.886 38.648 202.43 37.528 207.55 37.528C212.542 37.528 216.958 38.616 220.798 40.792C224.638 42.968 227.582 45.976 229.63 49.816C231.742 53.592 232.798 57.88 232.798 62.68ZM223.774 60.856C223.774 57.528 223.038 54.68 221.566 52.312C220.094 49.88 218.078 48.056 215.518 46.84C213.022 45.56 210.238 44.92 207.166 44.92C202.75 44.92 198.974 46.328 195.838 49.144C192.766 51.96 191.006 55.864 190.558 60.856H223.774ZM253.066 48.088C254.794 45.08 257.354 42.584 260.746 40.6C264.202 38.552 268.202 37.528 272.746 37.528C277.418 37.528 281.642 38.648 285.417 40.888C289.257 43.128 292.266 46.296 294.442 50.392C296.618 54.424 297.706 59.128 297.706 64.504C297.706 69.816 296.618 74.552 294.442 78.712C292.266 82.872 289.257 86.104 285.417 88.408C281.642 90.712 277.418 91.864 272.746 91.864C268.266 91.864 264.298 90.872 260.842 88.888C257.45 86.84 254.858 84.312 253.066 81.304V115.96H244.33V38.392H253.066V48.088ZM288.778 64.504C288.778 60.536 287.978 57.08 286.378 54.136C284.778 51.192 282.602 48.952 279.85 47.416C277.162 45.88 274.186 45.112 270.922 45.112C267.722 45.112 264.746 45.912 261.994 47.512C259.306 49.048 257.13 51.32 255.466 54.328C253.866 57.272 253.066 60.696 253.066 64.6C253.066 68.568 253.866 72.056 255.466 75.064C257.13 78.008 259.306 80.28 261.994 81.88C264.746 83.416 267.722 84.184 270.922 84.184C274.186 84.184 277.162 83.416 279.85 81.88C282.602 80.28 284.778 78.008 286.378 75.064C287.978 72.056 288.778 68.536 288.778 64.504ZM317.941 48.088C319.669 45.08 322.229 42.584 325.621 40.6C329.077 38.552 333.077 37.528 337.621 37.528C342.293 37.528 346.517 38.648 350.292 40.888C354.132 43.128 357.141 46.296 359.317 50.392C361.493 54.424 362.581 59.128 362.581 64.504C362.581 69.816 361.493 74.552 359.317 78.712C357.141 82.872 354.132 86.104 350.292 88.408C346.517 90.712 342.293 91.864 337.621 91.864C333.141 91.864 329.173 90.872 325.717 88.888C322.325 86.84 319.733 84.312 317.941 81.304V115.96H309.205V38.392H317.941V48.088ZM353.653 64.504C353.653 60.536 352.853 57.08 351.253 54.136C349.653 51.192 347.477 48.952 344.725 47.416C342.037 45.88 339.061 45.112 335.797 45.112C332.597 45.112 329.621 45.912 326.869 47.512C324.181 49.048 322.005 51.32 320.341 54.328C318.741 57.272 317.941 60.696 317.941 64.6C317.941 68.568 318.741 72.056 320.341 75.064C322.005 78.008 324.181 80.28 326.869 81.88C329.621 83.416 332.597 84.184 335.797 84.184C339.061 84.184 342.037 83.416 344.725 81.88C347.477 80.28 349.653 78.008 351.253 75.064C352.853 72.056 353.653 68.536 353.653 64.504ZM384.736 45.592V76.6C384.736 79.16 385.28 80.984 386.368 82.072C387.456 83.096 389.344 83.608 392.031 83.608H398.464V91H390.592C385.728 91 382.08 89.88 379.648 87.64C377.216 85.4 376 81.72 376 76.6V45.592H369.184V38.392H376V25.144H384.736V38.392H398.464V45.592H384.736ZM417.784 46.936C419.32 43.928 421.496 41.592 424.312 39.928C427.192 38.264 430.68 37.432 434.776 37.432V46.456H432.472C422.68 46.456 417.784 51.768 417.784 62.392V91H409.048V38.392H417.784V46.936ZM492.861 62.68C492.861 64.344 492.765 66.104 492.573 67.96H450.525C450.845 73.144 452.605 77.208 455.805 80.152C459.069 83.032 463.005 84.472 467.613 84.472C471.389 84.472 474.525 83.608 477.021 81.88C479.581 80.088 481.373 77.72 482.397 74.776H491.805C490.397 79.832 487.581 83.96 483.357 87.16C479.133 90.296 473.885 91.864 467.613 91.864C462.621 91.864 458.141 90.744 454.173 88.504C450.269 86.264 447.197 83.096 444.957 79C442.717 74.84 441.597 70.04 441.597 64.6C441.597 59.16 442.685 54.392 444.861 50.296C447.037 46.2 450.077 43.064 453.981 40.888C457.949 38.648 462.493 37.528 467.613 37.528C472.605 37.528 477.021 38.616 480.861 40.792C484.701 42.968 487.645 45.976 489.693 49.816C491.805 53.592 492.861 57.88 492.861 62.68ZM483.837 60.856C483.837 57.528 483.101 54.68 481.629 52.312C480.157 49.88 478.141 48.056 475.581 46.84C473.085 45.56 470.301 44.92 467.229 44.92C462.813 44.92 459.037 46.328 455.901 49.144C452.829 51.96 451.069 55.864 450.621 60.856H483.837ZM552.392 62.68C552.392 64.344 552.296 66.104 552.104 67.96H510.056C510.376 73.144 512.136 77.208 515.336 80.152C518.6 83.032 522.536 84.472 527.144 84.472C530.92 84.472 534.056 83.608 536.552 81.88C539.112 80.088 540.904 77.72 541.928 74.776H551.336C549.928 79.832 547.112 83.96 542.888 87.16C538.664 90.296 533.416 91.864 527.144 91.864C522.152 91.864 517.672 90.744 513.704 88.504C509.8 86.264 506.728 83.096 504.488 79C502.248 74.84 501.128 70.04 501.128 64.6C501.128 59.16 502.216 54.392 504.392 50.296C506.568 46.2 509.608 43.064 513.512 40.888C517.48 38.648 522.024 37.528 527.144 37.528C532.136 37.528 536.552 38.616 540.392 40.792C544.232 42.968 547.176 45.976 549.224 49.816C551.336 53.592 552.392 57.88 552.392 62.68ZM543.368 60.856C543.368 57.528 542.632 54.68 541.16 52.312C539.688 49.88 537.672 48.056 535.112 46.84C532.616 45.56 529.832 44.92 526.76 44.92C522.344 44.92 518.568 46.328 515.432 49.144C512.36 51.96 510.6 55.864 510.152 60.856H543.368Z" fill="#1e1e1e"/>
<rect y="7" width="100" height="100" rx="10" fill="#1e1e1e"/>
<path d="M49.3081 23.224C55.6441 23.224 60.7641 25.016 64.6681 28.6C68.5721 32.184 70.5241 36.984 70.5241 43C70.5241 49.72 68.4441 54.712 64.2841 57.976C60.1241 61.176 54.4921 62.776 47.3881 62.776L47.1001 71.896H39.5161L39.1321 56.728H41.9161C48.2521 56.728 53.2121 55.768 56.7961 53.848C60.3801 51.928 62.1721 48.312 62.1721 43C62.1721 39.16 61.0201 36.12 58.7161 33.88C56.4121 31.64 53.3081 30.52 49.4041 30.52C45.4361 30.52 42.3001 31.608 39.9961 33.784C37.7561 35.896 36.6361 38.808 36.6361 42.52H28.3801C28.3801 38.68 29.2441 35.32 30.9721 32.44C32.7001 29.496 35.1321 27.224 38.2681 25.624C41.4681 24.024 45.1481 23.224 49.3081 23.224ZM43.2601 91.576C41.5961 91.576 40.1881 91 39.0361 89.848C37.8841 88.696 37.3081 87.288 37.3081 85.624C37.3081 83.96 37.8841 82.552 39.0361 81.4C40.1881 80.248 41.5961 79.672 43.2601 79.672C44.8601 79.672 46.2041 80.248 47.2921 81.4C48.4441 82.552 49.0201 83.96 49.0201 85.624C49.0201 87.288 48.4441 88.696 47.2921 89.848C46.2041 91 44.8601 91.576 43.2601 91.576Z" fill="#1E1E1E"/>
</svg>
